OpenSim_Sub04_EMGBaseline_GRF.mot
version=1
nRows=58
nColumns=19
inDegrees=no
endheader
time	lFx	lFy	lFz	lCOPx	lCOPy	lCOPz	rFx	rFy	rFz	rCOPx	rCOPy	rCOPz	lMx	lMy	lMz	rMx	rMy	rMz
39.70000000	-29.09310613	657.51326746	53.27554763	0.81368975	0	-0.63838670	0.06822362	1.01865193	-0.13063439	-0.00000900	0	0.00000694	0	-3.02683920	0	0	0.00000012	0.00000000
39.71000000	-28.13812175	655.08312768	52.50953440	0.80955841	0	-0.63862368	0.05121628	1.00353891	-0.15076193	-0.00000138	0	0.00000098	0	-3.13887166	0	0	0.00000011	-0.00000000
39.72000000	-27.21914390	653.25279962	51.51955982	0.80519645	0	-0.63882386	0.02834552	0.94464687	-0.12015129	0.00000126	0	-0.00000104	0	-3.19274367	0	0	0.00000006	-0.00000000
39.73000000	-26.33042999	651.87036008	50.34778753	0.80046266	0	-0.63895304	0.01001793	0.85837364	-0.03466675	0.00000138	0	-0.00000110	0	-3.18075528	0	0	0.00000001	0.00000000
39.74000000	-25.23662272	651.10443853	49.07627175	0.79532530	0	-0.63902756	0.00570144	0.78857638	0.00225716	0.00000079	0	-0.00000061	0	-3.11569835	0	0	-0.00000001	0.00000000
39.75000000	-23.76598339	651.04634312	47.87458765	0.78977441	0	-0.63905237	0.00034316	0.81716168	0.03301337	0.00000026	0	-0.00000020	0	-3.07616060	0	0	-0.00000001	-0.00000000
39.76000000	-21.92138625	651.60203244	46.88553303	0.78401154	0	-0.63904614	-0.01409342	0.87099538	0.09304680	-0.00000001	0	0.00000001	0	-3.06020075	0	0	0.00000000	0.00000000
39.77000000	-19.93139558	652.72666423	46.23278110	0.77825373	0	-0.63902319	-0.02012400	0.88932938	0.09975640	-0.00000013	0	0.00000008	0	-3.05012512	0	0	0.00000003	-0.00000000
39.78000000	-17.88372098	654.26466269	45.95147267	0.77234806	0	-0.63899886	-0.00639560	0.84461745	0.10797422	-0.00000016	0	0.00000009	0	-3.05435370	0	0	0.00000007	-0.00000000
39.79000000	-15.60538568	655.89446284	45.85302910	0.76610673	0	-0.63902379	0.01623719	0.74451549	0.14345371	-0.00000012	0	0.00000006	0	-3.04354700	0	0	0.00000009	-0.00000000
39.80000000	-12.96396998	657.18394488	45.81107698	0.75950328	0	-0.63912506	0.03789421	0.72350238	0.12442647	0.00000013	0	-0.00000006	0	-3.07101652	0	0	0.00000002	0.00000000
39.81000000	-10.07508328	657.86699618	45.77666357	0.75295123	0	-0.63933543	0.03856148	0.76253396	0.07707328	0.00000075	0	-0.00000035	0	-3.20581166	0	0	-0.00000028	-0.00000000
39.82000000	-7.20017097	658.13681827	45.66783258	0.74658372	0	-0.63963539	0.02333526	0.76974549	0.07966180	0.00000179	0	-0.00000083	0	-3.35331643	0	0	-0.00000094	0.00000000
39.83000000	-4.32013735	658.42899242	45.52128801	0.74021697	0	-0.63997421	0.01115215	0.69109725	0.07688359	0.00000262	0	-0.00000121	0	-3.45340902	0	0	-0.00000181	-0.00000000
39.84000000	-1.33863867	659.12306445	45.45936521	0.73378908	0	-0.64029215	0.00618780	0.57711793	0.06939709	0.00000121	0	-0.00000057	0	-3.52752872	0	0	-0.00000197	-0.00000000
39.85000000	1.70489735	660.43181936	45.50012113	0.72728507	0	-0.64052989	0.00721044	0.57578727	0.06681148	-0.00000620	0	0.00000283	0	-3.55940665	0	0	0.00000082	-0.00000000
39.86000000	4.55754365	662.57295416	45.68204954	0.72087334	0	-0.64067414	0.02164422	0.64011127	0.07867211	-0.00002357	0	0.00001082	0	-3.59998130	0	0	0.00000998	-0.00000000
39.87000000	7.16384664	665.31977356	45.91782888	0.71452833	0	-0.64073212	0.02676242	0.65481707	0.11088492	-0.00004858	0	0.00002236	0	-3.65102606	0	0	0.00002743	-0.00000000
39.88000000	9.75667746	668.16196219	46.02306636	0.70825495	0	-0.64073705	0.02715506	0.64700831	0.15968548	-0.00005923	0	0.00002737	0	-3.64379514	0	0	0.00004605	-0.00000000
39.89000000	12.47427998	670.66824929	45.93666480	0.70190468	0	-0.64065958	0.03399315	0.69783323	0.18102918	0.00000303	0	-0.00000107	0	-3.54357322	0	0	0.00003687	0.00000000
39.90000000	15.22177966	672.67028638	45.76948083	0.69552108	0	-0.64043738	0.04533382	0.83368258	0.14416461	0.00023386	0	-0.00010705	0	-3.41254973	0	0	-0.00006184	-0.00000000
39.91000000	17.91290257	674.17286091	45.45909058	0.68932172	0	-0.64009854	0.07152134	0.96280687	0.07954803	0.00070385	0	-0.00032342	0	-3.22658687	0	0	-0.00032896	-0.00000000
39.92000000	20.65435474	675.07470941	44.93714291	0.68331756	0	-0.63969267	0.08547446	1.05997810	0.04406986	0.00126622	0	-0.00058337	0	-2.98453637	0	0	-0.00077177	0.00000000
39.93000000	23.50611853	675.33264236	44.32313404	0.67729018	0	-0.63922031	0.06091319	1.02343981	0.07089287	0.00120427	0	-0.00055806	0	-2.76833683	0	0	-0.00111336	0.00000000
39.94000000	26.37184053	674.89443967	43.64410073	0.67111791	0	-0.63864572	-0.05668684	0.82639848	0.07919840	-0.00111767	0	0.00050503	0	-2.55485837	0	0	-0.00047914	-0.00000000
39.95000000	28.96885206	673.87647272	42.93752301	0.66501464	0	-0.63797378	-0.33851251	0.36881247	0.04985425	-0.00798525	0	0.00366091	0	-2.33713961	0	0	0.00275609	0.00000000
39.96000000	31.26315283	672.30109723	42.24496694	0.65883906	0	-0.63720064	-0.79925758	-0.28710007	-0.00649525	-0.02018771	0	0.00928321	0	-2.12063174	0	0	0.01024735	0.00000000
39.97000000	33.44781369	670.09143632	41.52884834	0.65264993	0	-0.63639368	-1.21698442	-0.36894234	-0.16144427	-0.03147232	0	0.01451433	0	-1.87778972	0	0	0.02089445	-0.00000000
39.98000000	35.72985461	666.98495561	40.81383327	0.64660733	0	-0.63563189	-0.81785809	1.73766024	-0.34217456	-0.01972011	0	0.00919652	0	-1.58628290	0	0	0.02505653	0.00000000
39.99000000	38.13260189	662.63433121	40.21074510	0.64082533	0	-0.63493487	1.97492206	8.53095199	-0.27746112	0.05901816	0	-0.02690570	0	-1.28685980	0	0	-0.00258478	0.00000000
40	40.71401316	656.64705695	39.67119882	0.63514877	0	-0.63430440	8.42048820	22.33122302	0.42040065	0.25530478	0	-0.11717298	0	-1.01217935	0	0	-0.10291788	0
40.01000000	43.72163420	648.51600121	39.00510836	0.62933517	0	-0.63374472	15.64400261	42.97273433	2.57302304	0.55734839	0	-0.25647471	0	-0.75954466	0	0	-0.30511494	0
40.02000000	47.11052371	638.07918421	38.15010768	0.62340820	0	-0.63322350	18.17667803	67.16867613	6.47693728	0.81429229	0	-0.37600070	0	-0.55740609	0	0	-0.55555944	0.00000000
40.03000000	50.51648729	625.43228512	37.02427819	0.61740709	0	-0.63271365	14.66601382	92.78878414	10.26686175	0.94137690	0	-0.43783901	0	-0.38031585	0	0	-0.77165843	0
40.04000000	53.55216925	610.64765078	35.52142424	0.61138161	0	-0.63216828	7.89690201	121.44187781	12.95781144	0.97527239	0	-0.45677176	0	-0.18863587	0	0	-0.94025022	0
40.05000000	56.06746294	593.49067684	33.50046178	0.60541016	0	-0.63149906	0.40365633	155.86047628	14.32804174	0.96847057	0	-0.45553250	0	0.03888735	0	0	-1.03199959	0
40.06000000	57.97935066	573.37977068	30.84023502	0.59956679	0	-0.63065400	-6.84961366	196.66125287	13.67938247	0.95243412	0	-0.44902300	0	0.32985753	0	0	-1.04527352	0
40.07000000	59.11067042	549.63532513	27.48749420	0.59398105	0	-0.62963780	-13.43676483	241.60123572	11.15135011	0.93932973	0	-0.44343400	0	0.68255947	0	0	-1.03644793	0
40.08000000	59.22728351	521.59678672	23.46508066	0.58882154	0	-0.62847825	-19.27120951	287.32897735	7.41286311	0.93150518	0	-0.43983862	0	1.05011558	0	0	-1.04987842	0.00000000
40.09000000	58.14441671	489.00820750	18.86300703	0.58402420	0	-0.62722186	-24.52161617	330.63515324	2.92786841	0.92712971	0	-0.43771989	0	1.37839752	0	0	-1.14631568	0.00000000
40.10000000	55.81977239	452.08737609	13.77429046	0.57940545	0	-0.62588111	-29.36011157	369.92877636	-2.10235201	0.92458450	0	-0.43621557	0	1.63596353	0	0	-1.30900199	0
40.11000000	52.22229162	411.46793189	8.52049888	0.57475340	0	-0.62439121	-34.22732788	405.18221031	-7.71427527	0.92268042	0	-0.43476653	0	1.79838022	0	0	-1.47656895	0
40.12000000	47.51049234	367.92804940	3.53685715	0.57005111	0	-0.62271891	-39.29139583	436.43508931	-13.67753468	0.92073467	0	-0.43335267	0	1.80659051	0	0	-1.64251665	0
40.13000000	41.96659104	322.39917749	-0.71366716	0.56525712	0	-0.62102614	-43.80514406	463.53222362	-18.95785962	0.91856985	0	-0.43207540	0	1.59448935	0	0	-1.88076721	0
40.14000000	35.95110038	276.10162942	-3.83043551	0.56030209	0	-0.61981264	-47.23549698	486.88812561	-23.28528959	0.91606993	0	-0.43097464	0	1.10427997	0	0	-2.11865640	-0.00000000
40.15000000	29.82501545	230.67680008	-5.70261047	0.55589797	0	-0.62015257	-49.70824644	507.38552322	-27.00697685	0.91303909	0	-0.43004072	0	0.31250125	0	0	-2.28593317	0
40.16000000	23.63906952	188.16949120	-6.48727816	0.55339925	0	-0.62361878	-51.37446364	525.97557314	-30.03711526	0.90968743	0	-0.42924759	0	-0.73699659	0	0	-2.42970095	-0.00000000
40.17000000	17.31161322	150.37173084	-6.52703844	0.55378799	0	-0.63121352	-52.49207126	543.12448627	-32.32377697	0.90634735	0	-0.42854898	0	-1.93331968	0	0	-2.60184393	-0.00000000
40.18000000	11.04401385	117.92148364	-6.33294819	0.55448845	0	-0.64030091	-53.22593100	558.95358140	-34.19487612	0.90280926	0	-0.42793913	0	-3.05925211	0	0	-2.78392255	0
40.19000000	5.30629523	90.60555394	-6.16771238	0.54508557	0	-0.63901692	-53.57504222	573.99271572	-35.97433184	0.89909251	0	-0.42737343	0	-3.90849262	0	0	-2.93895462	0
40.20000000	0.47728627	68.09422860	-6.07449066	0.50418034	0	-0.60105592	-53.58433360	588.89663230	-37.77592825	0.89524118	0	-0.42680640	0	-4.25556953	0	0	-3.13695613	0
40.21000000	-2.90810648	49.47007304	-6.12248056	0.40572164	0	-0.49151309	-53.23498882	603.96389009	-39.75282350	0.89129934	0	-0.42618896	0	-3.84231688	0	0	-3.36412576	0
40.22000000	-4.25456011	33.50949260	-6.33540829	0.24684882	0	-0.30300772	-52.42156660	618.77416516	-42.08797537	0.88720953	0	-0.42551378	0	-2.55812610	0	0	-3.49204064	0
40.23000000	-3.31652888	19.70603585	-6.62003338	0.09596202	0	-0.11945837	-50.98585329	632.51765479	-44.74188430	0.88282806	0	-0.42480893	0	-1.09437527	0	0	-3.54581874	0
40.24000000	-0.69741187	8.87550596	-6.98409123	0.01231205	0	-0.01645596	-48.96019284	644.28592668	-47.44212282	0.87809326	0	-0.42409962	0	-0.20818630	0	0	-3.57735978	0.00000000
40.25000000	1.62102339	2.81420700	-7.32220721	-0.01537526	0	0.01822891	-46.56432845	653.51500985	-49.85104766	0.87312563	0	-0.42341977	0	0.12066885	0	0	-3.56029229	-0.00000000
40.26000000	2.79596020	0.69475647	-7.44562644	-0.01564998	0	0.01904482	-44.01457833	660.02038374	-51.56291178	0.86801691	0	-0.42272391	0	0.15224521	0	0	-3.54023871	0.00000000
40.27000000	3.12487180	0.50836482	-7.46216790	-0.00856986	0	0.01055586	-41.40030364	663.63538720	-52.48270446	0.86272181	0	-0.42202703	0	0.09099135	0	0	-3.51516494	0.00000000
